<svg width="16" height="17" viewBox="0 0 16 17" fill="none" xmlns="http://www.w3.org/2000/svg">
<g id="clock-01">
<path id="Vector (Stroke)" fill-rule="evenodd" clip-rule="evenodd" d="M8.00002 2.76644C4.83358 2.76644 2.26668 5.33334 2.26668 8.49977C2.26668 11.6662 4.83358 14.2331 8.00002 14.2331C11.1664 14.2331 13.7333 11.6662 13.7333 8.49977C13.7333 5.33334 11.1664 2.76644 8.00002 2.76644ZM0.93335 8.49977C0.93335 4.59696 4.0972 1.43311 8.00002 1.43311C11.9028 1.43311 15.0667 4.59696 15.0667 8.49977C15.0667 12.4026 11.9028 15.5664 8.00002 15.5664C4.0972 15.5664 0.93335 12.4026 0.93335 8.49977ZM8.00002 5.28794C8.36821 5.28794 8.66668 5.58642 8.66668 5.95461V8.81926L10.6108 9.46732C10.9601 9.58375 11.1489 9.96129 11.0325 10.3106C10.916 10.6599 10.5385 10.8487 10.1892 10.7322L7.7892 9.93223C7.51697 9.84148 7.33335 9.58673 7.33335 9.29977V5.95461C7.33335 5.58642 7.63183 5.28794 8.00002 5.28794Z" fill="#484848"/>
</g>
</svg>
