<svg width="20" height="20" viewBox="0 0 20 20" fill="none" xmlns="http://www.w3.org/2000/svg">
<g id="filter">
<path id="filter_2" d="M15.3297 1.0415H4.74295C4.08178 1.0415 3.44769 1.30415 2.98017 1.77167C2.51265 2.23919 2.25 2.87328 2.25 3.53446V5.57037C2.25487 6.21743 2.51114 6.83725 2.96465 7.29881L6.08915 10.4649C6.56587 10.9469 6.83186 11.5984 6.82872 12.2764V16.6391C6.82764 17.0649 6.94426 17.4827 7.16569 17.8463C7.38712 18.21 7.70475 18.5054 8.08351 18.6999C8.46217 18.8945 8.88685 18.9819 9.31159 18.9526C9.73634 18.9233 10.145 18.7785 10.4934 18.5337L11.6235 17.7027C11.9135 17.4979 12.1502 17.2265 12.3136 16.9113C12.477 16.5961 12.5624 16.2462 12.5625 15.8912V12.4011C12.5589 12.0395 12.631 11.6813 12.7741 11.3492C12.9173 11.0172 13.1282 10.7188 13.3935 10.4732L16.9086 7.34036C17.1683 7.10803 17.3765 6.82382 17.5196 6.50606C17.6627 6.18831 17.7377 5.84408 17.7395 5.49558V3.50122C17.7313 2.85996 17.4763 2.24653 17.0275 1.78843C16.5787 1.33034 15.9706 1.06283 15.3297 1.0415V1.0415ZM3.52141 5.57037V3.50122C3.5214 3.34119 3.55306 3.18274 3.61455 3.035C3.67604 2.88726 3.76615 2.75315 3.87969 2.64038C3.99323 2.52761 4.12796 2.43842 4.27611 2.37794C4.42427 2.31746 4.58293 2.28688 4.74295 2.28798H8.72336L5.2083 7.77247L3.87873 6.42628C3.76521 6.31457 3.67512 6.18133 3.61377 6.03435C3.55241 5.88738 3.52101 5.72963 3.52141 5.57037V5.57037ZM16.5429 5.49558C16.544 5.66735 16.509 5.83743 16.4403 5.99487C16.3716 6.1523 16.2707 6.2936 16.1441 6.40966L12.6207 9.54247C12.218 9.90191 11.8959 10.3424 11.6753 10.835C11.4548 11.3276 11.3409 11.8613 11.341 12.4011V15.9078C11.3407 16.0623 11.3036 16.2145 11.2328 16.3517C11.162 16.489 11.0595 16.6075 10.9338 16.6972L9.79533 17.5282C9.63532 17.6338 9.44993 17.6945 9.25849 17.704C9.06704 17.7136 8.87653 17.6716 8.70681 17.5825C8.5371 17.4934 8.39437 17.3604 8.29352 17.1974C8.19266 17.0344 8.13735 16.8473 8.13337 16.6557V12.2764C8.13442 11.2724 7.74041 10.3082 7.03647 9.59233L6.10576 8.68656L10.2108 2.28798H15.3297C15.489 2.28798 15.6468 2.31936 15.794 2.38033C15.9412 2.4413 16.0749 2.53067 16.1876 2.64333C16.3002 2.75599 16.3896 2.88973 16.4506 3.03693C16.5115 3.18413 16.5429 3.34189 16.5429 3.50122V5.49558Z" fill="#7239EA"/>
</g>
</svg>
