<svg width="20" height="20" viewBox="0 0 20 20" fill="none" xmlns="http://www.w3.org/2000/svg">
<g id="magnifier">
<path id="Union" fill-rule="evenodd" clip-rule="evenodd" d="M15.0058 14.0039C16.0797 12.7063 16.7251 11.0411 16.7251 9.2251C16.7251 5.08296 13.3672 1.7251 9.2251 1.7251C5.08296 1.7251 1.7251 5.08296 1.7251 9.2251C1.7251 13.3672 5.08296 16.7251 9.2251 16.7251C11.0411 16.7251 12.7064 16.0797 14.004 15.0057L17.0576 18.0592C17.3342 18.3358 17.7827 18.3358 18.0593 18.0592C18.3359 17.7826 18.3359 17.3341 18.0593 17.0575L15.0058 14.0039ZM9.2251 15.3351C5.85065 15.3351 3.11513 12.5995 3.11513 9.2251C3.11513 5.85065 5.85065 3.11513 9.2251 3.11513C12.5995 3.11513 15.3351 5.85065 15.3351 9.2251C15.3351 12.5995 12.5995 15.3351 9.2251 15.3351Z" fill="#B4B4B4"/>
</g>
</svg>
